<?xml version="1.0" encoding="utf-8"?>
<!-- Generator: Adobe Illustrator 22.0.1, SVG Export Plug-In . SVG Version: 6.00 Build 0)  -->
<svg version="1.1" id="Calque_1" xmlns="http://www.w3.org/2000/svg" xmlns:xlink="http://www.w3.org/1999/xlink" x="0px" y="0px"
	 viewBox="0 0 447 165" style="enable-background:new 0 0 447 165;" xml:space="preserve">
<style type="text/css">
	.st0{display:none;}
	.st1{fill:#FBB03B;}
	.st2{fill:#ED1C24;}
	.st3{fill:#1B1464;}
	.st4{fill:#009245;}
	.st5{fill:#00FF00;}
	.st6{fill:#00FFFF;}
</style>
<polygon class="st0" points="333.7,-108.4 113.3,-108.4 3,82.5 113.3,273.4 333.7,273.4 444,82.5 "/>
<path class="st1" d="M58.4,86.6c-0.6-1-1.6-1.6-2.8-1.6H13.4c-1.2,0-2.2,0.6-2.8,1.6c-0.6,1-0.6,2.2,0,3.2l32.9,57.1
	c0.6,1,1.6,1.6,2.8,1.6c1.2,0,2.2-0.6,2.8-1.6l21.1-36.6c0.6-1,0.6-2.2,0-3.2L58.4,86.6z"/>
<path class="st2" d="M100.7,111.2H77.1c-1.1,0-2.2,0.6-2.8,1.6l-21.1,36.6c-0.6,1-0.6,2.2,0,3.2c0.6,1,1.6,1.6,2.8,1.6h65.9
	c1.2,0,2.2-0.6,2.8-1.6c0.6-1,0.6-2.2,0-3.2l-21.1-36.6C102.9,111.8,101.8,111.2,100.7,111.2z"/>
<path class="st3" d="M119.5,86.6L107.7,107c-0.6,1-0.6,2.2,0,3.2l21.1,36.6c0.6,1,1.6,1.6,2.8,1.6s2.2-0.6,2.8-1.6l32.9-57.1
	c0.6-1,0.6-2.2,0-3.2c-0.6-1-1.6-1.6-2.8-1.6h-42.3C121.2,85,120.1,85.6,119.5,86.6z"/>
<path class="st4" d="M134.2,18.7c-0.6-1-1.6-1.6-2.8-1.6s-2.2,0.6-2.8,1.6l-21.1,36.6c-0.6,1-0.6,2.2,0,3.2l11.8,20.4
	c0.6,1,1.6,1.6,2.8,1.6h42.3c1.2,0,2.2-0.6,2.8-1.6c0.6-1,0.6-2.2,0-3.2L134.2,18.7z"/>
<path class="st5" d="M121.8,11.3l-65.9,0c-1.2,0-2.2,0.6-2.8,1.6c-0.6,1-0.6,2.2,0,3.2l21.1,36.6c0.6,1,1.6,1.6,2.8,1.6h23.6
	c1.1,0,2.2-0.6,2.8-1.6l21.1-36.6c0.6-1,0.6-2.2,0-3.2C124,11.9,123,11.3,121.8,11.3z"/>
<path class="st6" d="M70,55.3L48.9,18.7c-0.6-1-1.6-1.6-2.8-1.6s-2.2,0.6-2.8,1.6L10.4,75.7c-0.6,1-0.6,2.2,0,3.2
	c0.6,1,1.6,1.6,2.8,1.6h42.3c1.1,0,2.2-0.6,2.8-1.6L70,58.5C70.6,57.5,70.6,56.3,70,55.3z"/>
<g>
	<path d="M196.9,58.4v17.3h-8.2V33.3h15.9c5.5,0,8.7,1.3,11,3.8c2.1,2.2,3.3,5.5,3.3,8.8c0,3.3-1.2,6.6-3.3,8.8
		c-2.3,2.4-5.6,3.8-11,3.8H196.9z M204.3,51.2c2.8,0,4.2-0.7,5.1-1.7c0.9-1,1.4-2.2,1.4-3.6c0-1.4-0.5-2.7-1.4-3.6
		c-1-1-2.4-1.7-5.1-1.7h-7.4v10.6H204.3z"/>
	<path d="M233.2,56.9v18.8H225V33.3h15.4c4.4,0,7.1,1.2,9.3,3.1c2.3,2.2,3.8,5.3,3.8,8.7s-1.5,6.5-3.8,8.7c-1.2,1.1-2.5,1.9-4.2,2.5
		l15.9,19.4h-10.1l-15.1-18.8H233.2z M240,49.7c2.4,0,3.4-0.5,4.1-1.3c0.7-0.8,1.2-2,1.2-3.2c0-1.3-0.5-2.5-1.2-3.3
		c-0.7-0.8-1.8-1.3-4.1-1.3h-6.8v9.1H240z"/>
	<path d="M265.6,33.3h8.2v42.4h-8.2V33.3z"/>
	<path d="M279.2,33.3h8.4l11.6,28.9l11.6-28.9h8.4l-17.1,42.4h-5.8L279.2,33.3z"/>
	<path d="M316.2,75.7l18.2-42.4h5.8l18.2,42.4h-8.5l-4-9.4h-17l-4,9.4H316.2z M331.9,59h10.8l-5.4-12.5L331.9,59z"/>
	<path d="M366.8,54.5c0,8.2,6.3,14.5,14.5,14.5c5.5,0,9.5-2.7,12-5.9l5.6,5c-3.8,4.8-10.1,8.1-17.8,8.1c-13.2,0-22.5-9.6-22.5-21.8
		s9.1-21.8,22.3-21.8c6.3,0,11.7,2.4,15.5,6.1l-5.3,5.6c-2.5-2.5-6.1-4.4-10.3-4.4C372.9,40,366.8,46.4,366.8,54.5z"/>
	<path d="M422.8,56.5v19.2h-8.2V56.5l-14.5-23.2h9.3l9.3,14.9l9.3-14.9h9.3L422.8,56.5z"/>
	<path d="M189.7,95.6h10c9,0,14.4,2.7,14.4,10.5c0,7.4-5.3,11-14.2,11h-7.5v16.2h-2.8V95.6z M199.3,114.9c8.1,0,12-2.6,12-8.8
		c0-6.4-4-8.3-12.2-8.3h-6.6v17.1H199.3z"/>
	<path d="M227.7,95.6h2.8l14,37.7h-2.9l-4.6-12.9h-15.7l-4.7,12.9h-2.8L227.7,95.6z M222,118.2h14.1l-2.5-7c-1.6-4.5-3-8.4-4.4-13
		h-0.2c-1.4,4.6-2.8,8.6-4.4,13L222,118.2z"/>
	<path d="M246.9,128.4l1.8-1.8c2.9,3.1,7.1,5.1,11.6,5.1c6.1,0,9.9-3.1,9.9-7.6c0-4.8-3.2-6.2-7.1-7.9l-6-2.6
		c-3.4-1.4-8.1-3.8-8.1-9.4c0-5.4,4.9-9.3,11.6-9.3c4.8,0,8.6,2.1,11,4.5l-1.6,1.7c-2.3-2.3-5.5-3.8-9.5-3.8c-5.2,0-8.8,2.6-8.8,6.8
		c0,4.3,4,6,6.9,7.3l6,2.5c4.5,1.9,8.4,4.2,8.4,10c0,5.8-5,10.1-12.7,10.1C254.6,134,250.1,131.7,246.9,128.4z"/>
	<path d="M276.9,128.4l1.8-1.8c2.9,3.1,7.1,5.1,11.6,5.1c6.1,0,9.9-3.1,9.9-7.6c0-4.8-3.2-6.2-7.1-7.9l-6-2.6
		c-3.4-1.4-8.1-3.8-8.1-9.4c0-5.4,4.9-9.3,11.6-9.3c4.8,0,8.6,2.1,11,4.5l-1.6,1.7c-2.3-2.3-5.5-3.8-9.5-3.8c-5.2,0-8.8,2.6-8.8,6.8
		c0,4.3,4,6,6.9,7.3l6,2.5c4.5,1.9,8.4,4.2,8.4,10c0,5.8-5,10.1-12.7,10.1C284.6,134,280.1,131.7,276.9,128.4z"/>
	<path d="M310.7,95.6h10c9,0,14.4,2.7,14.4,10.5c0,7.4-5.3,11-14.2,11h-7.5v16.2h-2.8V95.6z M320.3,114.9c8.1,0,12-2.6,12-8.8
		c0-6.4-4-8.3-12.2-8.3h-6.6v17.1H320.3z"/>
	<path d="M340.5,114.3c0-11.9,6.8-19.4,16.3-19.4c9.6,0,16.4,7.5,16.4,19.4c0,12-6.8,19.7-16.4,19.7
		C347.3,134,340.5,126.3,340.5,114.3z M370.3,114.3c0-10.4-5.4-17-13.4-17s-13.4,6.6-13.4,17c0,10.5,5.4,17.3,13.4,17.3
		S370.3,124.8,370.3,114.3z"/>
	<path d="M381.6,95.6H393c7.9,0,13,2.7,13,10c0,6-3.9,9.5-10.2,10.2l11,17.5h-3.2L392.8,116h-8.4v17.3h-2.8V95.6z M392.3,113.8
		c7,0,10.9-2.7,10.9-8.2c0-5.7-3.9-7.7-10.9-7.7h-7.9v16H392.3z"/>
	<path d="M421.6,97.9h-12.7v-2.3H437v2.3h-12.7v35.4h-2.8V97.9z"/>
</g>
</svg>
